<?xml version="1.0" encoding="UTF-8"?>
<svg id="Calque_1" xmlns="http://www.w3.org/2000/svg" viewBox="0 0 27.2 31.54">
  <defs>
    <style>
      .cls-1 {
        fill: #e9edef;
      }

      .cls-2 {
        fill: #e59ec0;
      }

      .cls-3 {
        fill: #fff;
      }
    </style>
  </defs>
  <path d="M16.18,8.2c-.72-1.27-1.43-2.5-2.11-3.75-.69-1.26-.42-2.27.76-3.08,1.07-.73,2.3-1.02,3.56-1.16,1.52-.17,3.05-.36,4.58-.06,2.31.45,3.58,1.71,4.03,4.01.68,3.49-.3,6.44-2.94,8.84-1,.91-2.22,1.04-3.3.21-.85-.66-1.59-1.46-2.35-2.22-.39-.39-.46-.41-.82.02.5.68,1.03,1.33,1.51,2.03.76,1.11,1.25,2.35,1.52,3.67.03.12.07.26.04.37-.07.24-.12.55-.3.67-.12.08-.47-.04-.65-.17-1.09-.79-2.16-1.61-3.25-2.42-.27-.2-.57-.37-.87-.55-.93-.57-.96-.56-1.65.39.42.54.89,1.07,1.25,1.66.42.7.76,1.46,1.1,2.21.07.16.03.48-.08.57-.12.09-.41.05-.58-.02-1.01-.42-2.01-.89-3.03-1.28-.92-.35-.97-.3-1.4.5.69.91,1.36,1.77,2,2.65.17.23.28.51.37.78.06.18.09.51,0,.57-.16.11-.44.12-.63.06-.47-.13-.91-.35-1.37-.49-.46-.14-.94-.26-1.41-.36-.13-.03-.29.05-.44.08.04.15.04.32.13.43.86,1.13,1.43,2.4,1.53,3.81.08,1.12.07,2.28-.1,3.39-.27,1.68-1.59,2.35-3.19,1.77-1.24-.45-2.03-1.33-2.41-2.59-.06-.21-.12-.41-.19-.62-.01-.03-.04-.06-.02-.03-.81.18-1.59.41-2.38.5-.88.1-1.72-.08-2.4-.73-.66-.64-.84-1.4-.57-2.27.33-1.06,1-1.87,1.89-2.5,1.3-.92,2.68-1.69,4.26-2.04.62-.14.81-.73.37-1.19-.43-.46-.94-.84-1.38-1.29-.69-.7-.58-1.21.39-1.37.71-.12,1.46-.05,2.18.04.46.06.77.02.98-.41.06-.13.16-.24.24-.36.5-.74.47-.88-.14-1.52-.7-.73-1.37-1.48-2.02-2.25-.12-.14-.21-.45-.14-.56.13-.19.4-.41.62-.41,1.21-.02,2.43.06,3.5.72.49.3.75.22,1.06-.24.69-1.03.73-1.04-.07-1.95-1-1.14-2.04-2.24-3.04-3.37-.18-.21-.25-.51-.36-.77.28-.11.58-.33.84-.3.67.09,1.38.18,1.97.48,1.04.52,2.05,1.13,2.97,1.83.97.74.92.8,1.95.08ZM20.74.59c-1.31.21-2.65.39-3.97.65-.45.09-.89.31-1.28.55-1.11.67-1.3,1.34-.76,2.5.91,1.95,2.06,3.77,3.49,5.38.92,1.03,1.89,2.03,2.93,2.93.86.74,1.69.62,2.52-.16,2.43-2.26,3.33-5.03,2.66-8.28-.32-1.56-1.25-2.64-2.79-3.07-.89-.25-1.83-.32-2.81-.49ZM15.54,18.59c-.17-.36-.26-.63-.41-.86-.48-.76-.97-1.51-1.47-2.27-.32-.48-.24-.89.15-1.31.71-.74.81-.84,1.44-.46,1.39.86,2.74,1.78,4.11,2.68.15.1.3.2.44.31-.05-.5-.14-.96-.36-1.34-.77-1.32-1.58-2.62-2.39-3.9-.22-.35-.35-.63.04-.92.6-.45.59-.45.11-1.04-.08-.1-.17-.19-.23-.3-.23-.43-.45-.51-.87-.15-.78.66-.87.62-1.62-.04-1.06-.94-2.24-1.7-3.57-2.19-.45-.17-.94-.24-1.42-.35,0,.22.05.32.12.39,1.08,1.19,2.17,2.36,3.23,3.57.2.22.38.67.29.89-.27.64-.67,1.22-1.06,1.8-.25.37-.55.41-.95.11-1.08-.78-2.32-.94-3.72-.89.22.26.37.44.52.61.62.71,1.25,1.4,1.84,2.13.15.19.33.55.25.71-.34.67-.67,1.39-1.2,1.9-.25.24-.91.06-1.38.08-.34.01-.69,0-1.02.05-.23.03-.46.13-.8.23.24.25.39.42.55.58.38.36.78.7,1.13,1.09.14.15.24.4.23.61-.02.58.97,1.4,1.53,1.23.05-.01.1-.05.12-.1.29-.49.73-.39,1.15-.27.82.24,1.64.5,2.46.75.03-.03.07-.05.1-.08-.66-.86-1.31-1.73-1.99-2.59-.32-.4-.51-.76-.13-1.24.63-.82.84-.95,1.54-.68,1.04.4,2.07.82,3.25,1.29ZM10.9,27.63c-.04-1.76-.6-3.52-1.52-4.72-.66-.85-1.53-1.32-2.59-1.13-2.11.37-3.98,1.26-5.41,2.9-.57.66-.97,1.46-.48,2.33.49.86,1.38.97,2.24.81.79-.14,1.55-.44,2.3-.71.62-.22.8-.13.79.51-.02,1.4.85,2.64,2.17,3.1,1.11.39,2.08-.17,2.28-1.33.1-.58.15-1.18.22-1.76Z"/>
  <path class="cls-2" d="M20.74.59c.98.16,1.92.24,2.81.49,1.54.43,2.47,1.51,2.79,3.07.67,3.25-.23,6.02-2.66,8.28-.83.78-1.66.9-2.52.16-1.05-.9-2.02-1.9-2.93-2.93-1.43-1.61-2.58-3.42-3.49-5.38-.54-1.16-.35-1.83.76-2.5.4-.24.84-.46,1.28-.55,1.32-.26,2.66-.44,3.97-.65ZM20.77,8.34c1.81.02,3.23-1.4,3.25-3.26.02-1.76-1.4-3.25-3.13-3.27-1.85-.03-3.34,1.44-3.36,3.29-.01,1.76,1.44,3.21,3.24,3.23Z"/>
  <path class="cls-1" d="M15.54,18.59c-1.17-.47-2.21-.88-3.25-1.29-.7-.27-.92-.14-1.54.68-.37.49-.19.84.13,1.24.68.85,1.33,1.72,1.99,2.59-.03.03-.07.05-.1.08-.82-.25-1.63-.51-2.46-.75-.42-.12-.86-.22-1.15.27-.03.04-.08.08-.12.1-.56.17-1.55-.65-1.53-1.23,0-.2-.1-.46-.23-.61-.35-.39-.75-.72-1.13-1.09-.16-.16-.31-.33-.55-.58.34-.1.56-.2.8-.23.34-.04.68-.04,1.02-.05.47-.01,1.13.17,1.38-.08.52-.51.86-1.23,1.2-1.9.08-.16-.1-.52-.25-.71-.59-.73-1.22-1.42-1.84-2.13-.15-.17-.3-.35-.52-.61,1.4-.05,2.65.11,3.72.89.41.3.71.26.95-.11.39-.58.79-1.16,1.06-1.8.09-.22-.09-.67-.29-.89-1.05-1.21-2.15-2.38-3.23-3.57-.07-.07-.11-.17-.12-.39.47.11.96.18,1.42.35,1.34.49,2.51,1.25,3.57,2.19.75.66.84.7,1.62.04.42-.35.64-.28.87.15.06.11.15.21.23.3.49.59.49.59-.11,1.04-.39.3-.26.58-.04.92.82,1.29,1.62,2.59,2.39,3.9.22.38.31.83.36,1.34-.15-.1-.29-.21-.44-.31-1.37-.9-2.72-1.83-4.11-2.68-.63-.39-.73-.29-1.44.46-.4.41-.47.82-.15,1.31.49.75.99,1.5,1.47,2.27.15.24.24.51.41.86Z"/>
  <path class="cls-2" d="M10.9,27.63c-.07.59-.12,1.18-.22,1.76-.19,1.16-1.16,1.72-2.28,1.33-1.32-.46-2.19-1.7-2.17-3.1,0-.64-.18-.74-.79-.51-.76.27-1.52.57-2.3.71-.86.15-1.75.05-2.24-.81-.49-.87-.09-1.67.48-2.33,1.43-1.64,3.3-2.53,5.41-2.9,1.06-.19,1.93.28,2.59,1.13.92,1.19,1.48,2.95,1.52,4.72Z"/>
  <path d="M20.77,8.34c-1.8-.02-3.25-1.48-3.24-3.23.01-1.86,1.51-3.32,3.36-3.29,1.73.02,3.15,1.51,3.13,3.27-.02,1.85-1.45,3.28-3.25,3.26ZM20.7,7.68c1.42.03,2.68-1.17,2.72-2.6.04-1.39-1.14-2.56-2.63-2.59-1.42-.03-2.6,1.09-2.63,2.52-.04,1.45,1.1,2.64,2.54,2.67Z"/>
  <path class="cls-3" d="M20.7,7.68c-1.44-.03-2.58-1.22-2.54-2.67.04-1.43,1.21-2.55,2.63-2.52,1.49.03,2.67,1.2,2.63,2.59-.04,1.42-1.3,2.62-2.72,2.6ZM20.79,6.51c.89,0,1.57-.7,1.55-1.58-.02-.91-.71-1.51-1.74-1.5-.83.01-1.51.7-1.49,1.52.02.87.77,1.56,1.67,1.56Z"/>
  <path d="M20.79,6.51c-.9,0-1.65-.69-1.67-1.56-.02-.82.65-1.51,1.49-1.52,1.03-.01,1.73.58,1.74,1.5.01.88-.67,1.58-1.55,1.58Z"/>
</svg>